<svg fill="none" height="24" viewBox="0 0 24 24" width="24" xmlns="http://www.w3.org/2000/svg"><g clip-rule="evenodd" fill="#47495f" fill-rule="evenodd"><path d="m17.5 6.5c0 .55228.4477 1 1 1s1-.44772 1-1-.4477-1-1-1-1 .44772-1 1zm1 2c-1.1046 0-2-.89543-2-2s.8954-2 2-2 2 .89543 2 2-.8954 2-2 2z"/><path d="m3.5 7c0 1.38071 1.11929 2.5 2.5 2.5.38373 0 .74727-.08646 1.0722-.24095.02042.03366.04517.06543.07425.0945l1.84946 1.84945c-.31489.5253-.49591 1.14-.49591 1.797 0 1.933 1.567 3.5 3.5 3.5.3852 0 .7559-.0622 1.1025-.1772l.2644.5289c-.5236.3606-.8669.9644-.8669 1.6483 0 1.1046.8954 2 2 2s2-.8954 2-2-.8954-2-2-2c-.0629 0-.1251.0029-.1866.0086l-.3168-.6336c.9087-.6322 1.5034-1.6842 1.5034-2.875 0-.788-.2604-1.5151-.6998-2.1001.0186-.014.0364-.0294.0534-.0463l1.5-1.50005c.1952-.19526.1952-.51184 0-.7071-.1953-.19527-.5119-.19527-.7072 0l-1.5 1.49995c-.0169.017-.0323.0348-.0463.0534-.585-.43942-1.3121-.6998-2.1001-.6998-.9138 0-1.7458.35021-2.36917.9237l-1.76253-1.7625c.39297-.44164.6317-1.02354.6317-1.6612 0-1.38071-1.11929-2.5-2.5-2.5s-2.5 1.11929-2.5 2.5zm2.5 1.5c-.82843 0-1.5-.67157-1.5-1.5s.67157-1.5 1.5-1.5 1.5.67157 1.5 1.5-.67157 1.5-1.5 1.5zm8.5 11c-.5523 0-1-.4477-1-1s.4477-1 1-1 1 .4477 1 1-.4477 1-1 1zm-2.5-4c-1.3807 0-2.5-1.1193-2.5-2.5s1.1193-2.5 2.5-2.5 2.5 1.1193 2.5 2.5-1.1193 2.5-2.5 2.5z"/></g></svg>