<svg width="40" height="40" viewBox="0 0 40 40" fill="none" xmlns="http://www.w3.org/2000/svg">
<g clip-path="url(#clip0_1_24)">
<path d="M20 40C31.0457 40 40 31.0457 40 20C40 8.9543 31.0457 0 20 0C8.9543 0 0 8.9543 0 20C0 31.0457 8.9543 40 20 40Z" fill="#627EEA"/>
<path d="M20.6225 5V16.0875L29.9937 20.275L20.6225 5Z" fill="white" fill-opacity="0.602"/>
<path d="M20.6225 5L11.25 20.275L20.6225 16.0875V5Z" fill="white"/>
<path d="M20.6225 27.46V34.9937L30 22.02L20.6225 27.46Z" fill="white" fill-opacity="0.602"/>
<path d="M20.6225 34.9937V27.4587L11.25 22.02L20.6225 34.9937Z" fill="white"/>
<path d="M20.6225 25.7162L29.9937 20.275L20.6225 16.09V25.7162Z" fill="white" fill-opacity="0.2"/>
<path d="M11.25 20.275L20.6225 25.7162V16.09L11.25 20.275Z" fill="white" fill-opacity="0.602"/>
</g>
<defs>
<clipPath id="clip0_1_24">
<rect width="40" height="40" fill="white"/>
</clipPath>
</defs>
</svg>
