<svg width="866" height="683" viewBox="0 0 866 683" fill="none" xmlns="http://www.w3.org/2000/svg">
<g clip-path="url(#clip0_414_623)">
<path d="M751.4 574.85L599.09 303.01L385.52 285.23L350.32 205.35L309.51 228.64L360.01 331.98L561.21 349.77L683.37 572.9L751.4 574.85Z" fill="#E0E0E0"/>
<path d="M404.12 211.93L312.16 139L290 254.24L404.12 211.93Z" fill="#E0E0E0"/>
<path d="M399.803 509.185L422.697 559.749H433.75L435.336 555.89L437.296 559.749H444.548L443.709 530.23L443.352 512.79L399.803 509.185Z" fill="#92E3A9"/>
<path opacity="0.3" d="M399.803 509.185L422.697 559.749H433.75L435.336 555.89L437.296 559.749H444.548L443.709 530.23L443.352 512.79L399.803 509.185Z" fill="black"/>
<path d="M500.025 514.604L522.36 559.749H533.412L534.99 556.212L536.958 559.749H544.211L543.362 532.723L543.006 516.759L500.025 514.604Z" fill="#92E3A9"/>
<path opacity="0.3" d="M500.025 514.604L522.36 559.749H533.412L534.99 556.212L536.958 559.749H544.211L543.362 532.723L543.006 516.759L500.025 514.604Z" fill="black"/>
<path d="M627.051 381.548L627.255 381.624L627.849 381.879C628.595 382.253 629.293 382.717 629.927 383.261C630.942 384.127 631.803 385.16 632.472 386.315C633.351 387.843 633.867 389.552 633.982 391.311C634.11 393.464 633.568 395.604 632.429 397.436C631.127 399.541 629.199 401.187 626.916 402.144C625.664 402.699 624.311 402.987 622.941 402.987C621.572 402.987 620.219 402.699 618.967 402.144C617.625 401.515 616.572 400.399 616.024 399.022C615.72 398.318 615.598 397.549 615.669 396.786C615.74 396.022 616.002 395.289 616.431 394.653C616.89 394.045 617.476 393.545 618.148 393.187C618.821 392.829 619.564 392.623 620.325 392.584C621.802 392.519 623.253 392.995 624.405 393.924C625.472 394.787 626.324 395.888 626.892 397.138C627.461 398.388 627.73 399.753 627.679 401.126C627.595 403.605 626.701 405.989 625.134 407.912C624.436 408.783 623.599 409.534 622.657 410.134C621.786 410.675 620.848 411.1 619.867 411.398C618.176 411.887 616.403 412.02 614.658 411.788C613.345 411.621 612.063 411.267 610.85 410.736C610.085 410.409 609.354 410.005 608.67 409.532L608.152 409.142C608.089 409.099 608.032 409.047 607.982 408.989C608.907 409.611 609.89 410.143 610.917 410.575C612.122 411.071 613.389 411.396 614.684 411.542C616.393 411.741 618.124 411.591 619.773 411.101C620.721 410.797 621.628 410.376 622.471 409.846C623.373 409.256 624.173 408.523 624.837 407.674C626.333 405.807 627.176 403.501 627.238 401.109C627.278 399.804 627.017 398.507 626.474 397.32C625.931 396.132 625.121 395.086 624.108 394.263C623.036 393.403 621.69 392.957 620.316 393.008C619.621 393.046 618.942 393.235 618.326 393.561C617.711 393.888 617.175 394.345 616.753 394.899C616.369 395.476 616.135 396.14 616.073 396.831C616.011 397.521 616.122 398.216 616.397 398.852C616.906 400.131 617.882 401.169 619.129 401.753C620.33 402.287 621.631 402.563 622.946 402.563C624.261 402.563 625.561 402.287 626.763 401.753C628.973 400.838 630.843 399.258 632.115 397.232C633.238 395.462 633.78 393.387 633.668 391.294C633.573 389.576 633.089 387.903 632.251 386.4C631.624 385.262 630.813 384.236 629.851 383.363C629.001 382.638 628.06 382.028 627.051 381.548Z" fill="#92E3A9"/>
<path d="M616.117 427.294C619.442 502.323 556.544 539.765 485.341 539.765C414.139 539.765 356.406 491.015 356.406 430.882C356.406 370.749 414.088 322 485.341 322C556.595 322 613.454 367.221 616.117 427.294Z" fill="#92E3A9"/>
<path opacity="0.3" d="M476.358 348.89C476.358 348.89 484.934 346.15 492.907 355.21C500.881 364.269 512.078 379.665 512.078 379.665C511.077 384.678 508.151 388.58 502.476 390.904L476.358 348.89Z" fill="black"/>
<path d="M400.567 508.887C424.946 508.887 444.71 493.742 444.71 475.059C444.71 456.376 424.946 441.23 400.567 441.23C376.187 441.23 356.423 456.376 356.423 475.059C356.423 493.742 376.187 508.887 400.567 508.887Z" fill="#92E3A9"/>
<path d="M441.741 384.618C441.741 384.618 467.613 344.479 479.463 348.839C491.313 353.199 502.434 390.904 502.434 390.904" fill="#92E3A9"/>
<path d="M412.484 375.423L411.271 364.548C411.271 364.548 395.078 357.762 380.565 354.463C366.051 351.163 363.201 354.463 363.201 354.463L386.155 386.62L412.484 375.423Z" fill="#92E3A9"/>
<path opacity="0.3" d="M447.017 336.921L455.601 342.011C455.601 342.011 497.166 330.983 529.111 342.011L517.397 332.044C517.397 332.044 478.674 323.731 447.017 336.921Z" fill="black"/>
<path opacity="0.3" d="M400.567 508.887C424.946 508.887 444.71 493.742 444.71 475.059C444.71 456.376 424.946 441.23 400.567 441.23C376.187 441.23 356.423 456.376 356.423 475.059C356.423 493.742 376.187 508.887 400.567 508.887Z" fill="black"/>
<path d="M389.353 508.887C412.191 508.887 430.705 493.742 430.705 475.059C430.705 456.376 412.191 441.23 389.353 441.23C366.514 441.23 348 456.376 348 475.059C348 493.742 366.514 508.887 389.353 508.887Z" fill="#92E3A9"/>
<path opacity="0.3" d="M375.06 459.189H371.879C370.314 459.189 369.045 460.458 369.045 462.023V488.098C369.045 489.663 370.314 490.931 371.879 490.931H375.06C376.624 490.931 377.893 489.663 377.893 488.098V462.023C377.893 460.458 376.624 459.189 375.06 459.189Z" fill="black"/>
<path opacity="0.3" d="M398.819 459.189H395.638C394.073 459.189 392.805 460.458 392.805 462.023V488.098C392.805 489.663 394.073 490.931 395.638 490.931H398.819C400.384 490.931 401.652 489.663 401.652 488.098V462.023C401.652 460.458 400.384 459.189 398.819 459.189Z" fill="black"/>
<path opacity="0.3" d="M409.974 376.483C413.697 374.388 415.691 371.249 414.291 366.067C414.291 366.067 395.078 357.779 380.565 354.462C366.051 351.146 363.201 354.462 363.201 354.462L386.155 386.62L409.974 376.483Z" fill="black"/>
<path d="M411.272 377.366L408.379 375.424C399.82 369.706 374.814 353.369 368.511 353.191C359.808 352.936 359.791 360.443 359.808 366.246C359.808 370.36 363.201 406.114 363.201 406.114" fill="#92E3A9"/>
<path d="M502.434 390.904C502.434 390.904 502.391 390.827 502.332 390.658C502.273 390.488 502.188 390.225 502.086 389.92L501.136 387.078C500.288 384.618 499.049 381.064 497.353 376.738C495.392 371.663 493.126 366.711 490.567 361.91C489.067 359.077 487.31 356.388 485.316 353.877C484.274 352.554 483.068 351.368 481.728 350.349C480.41 349.245 478.729 348.674 477.012 348.745C475.295 348.961 473.644 349.539 472.168 350.442C470.705 351.287 469.312 352.249 468.003 353.318C465.525 355.355 463.187 357.557 461.005 359.908C457.311 363.91 453.82 368.094 450.546 372.446C447.73 376.136 445.55 379.232 444.057 381.335L442.36 383.795L441.911 384.44C441.809 384.576 441.758 384.652 441.75 384.644C441.781 384.562 441.823 384.484 441.877 384.415L442.284 383.745C442.649 383.168 443.2 382.319 443.93 381.242C445.372 379.079 447.518 375.983 450.308 372.251C453.562 367.873 457.039 363.666 460.725 359.646C462.913 357.273 465.26 355.051 467.749 352.995C469.08 351.908 470.498 350.932 471.99 350.077C473.524 349.16 475.236 348.582 477.012 348.381C477.925 348.286 478.847 348.414 479.701 348.754C480.52 349.098 481.298 349.536 482.016 350.06C483.39 351.1 484.622 352.314 485.681 353.674C487.689 356.206 489.456 358.921 490.957 361.783C493.503 366.584 495.741 371.543 497.658 376.628C499.355 380.979 500.525 384.55 501.314 387.027C501.704 388.266 502.001 389.233 502.162 389.894L502.366 390.649C502.402 390.73 502.425 390.816 502.434 390.904Z" fill="#263238"/>
<path d="M517.397 332.052C517.474 332.093 517.546 332.144 517.609 332.204L518.203 332.679L520.459 334.571L528.704 341.561L529.247 342.027L528.552 341.832C523.567 340.424 518.502 339.317 513.385 338.515C507.13 337.549 500.814 337.033 494.486 336.972C481.458 336.834 468.478 338.579 455.949 342.154H455.89H455.839L449.307 338.329L447.611 337.302L447.17 337.023C447.077 336.963 447.026 336.929 447.034 336.921L447.195 336.997L447.645 337.235L449.401 338.202L455.992 341.925H455.89C461.29 340.331 466.787 339.084 472.346 338.193C475.637 337.65 479.183 337.252 482.89 336.929C486.597 336.607 490.524 336.488 494.511 336.564C500.858 336.623 507.192 337.151 513.461 338.142C518.593 338.96 523.669 340.094 528.662 341.535L528.518 341.807L520.366 334.707L518.16 332.756C517.923 332.544 517.745 332.374 517.592 332.247C517.522 332.187 517.456 332.122 517.397 332.052Z" fill="#263238"/>
<path d="M414.02 447.941C413.931 447.905 413.848 447.857 413.774 447.797L413.087 447.347L411.984 446.601C411.535 446.329 410.992 446.041 410.398 445.701C406.972 443.903 403.285 442.652 399.472 441.994C396.842 441.55 394.183 441.304 391.516 441.256C388.455 441.234 385.397 441.458 382.372 441.927C375.413 442.947 368.775 445.528 362.955 449.476C361.465 450.539 360.048 451.701 358.714 452.954C357.42 454.183 356.221 455.507 355.126 456.915C353.054 459.584 351.385 462.542 350.172 465.695C348.231 471.108 347.854 476.958 349.086 482.575C349.59 484.715 350.338 486.79 351.317 488.759C352.087 490.229 352.992 491.623 354.023 492.924L355.193 494.315L356.143 495.248L356.729 495.833C356.795 495.898 356.857 495.966 356.915 496.037C356.915 496.037 356.839 495.986 356.695 495.867L356.084 495.316L355.1 494.408C354.744 494.001 354.345 493.56 353.887 493.034C352.823 491.74 351.889 490.345 351.096 488.869C350.08 486.893 349.303 484.803 348.781 482.643C347.491 476.968 347.841 471.043 349.79 465.559C350.376 463.99 351.085 462.47 351.911 461.012C352.755 459.487 353.716 458.029 354.786 456.652C355.893 455.222 357.107 453.878 358.417 452.632C359.773 451.359 361.219 450.185 362.743 449.12C368.616 445.119 375.323 442.508 382.355 441.486C385.403 441.023 388.484 440.81 391.567 440.849C394.252 440.918 396.929 441.187 399.574 441.655C403.41 442.343 407.108 443.65 410.525 445.523C411.119 445.871 411.653 446.168 412.094 446.456L413.18 447.237L413.842 447.729C413.909 447.792 413.969 447.864 414.02 447.941Z" fill="#263238"/>
<path d="M377.638 462.158C377.708 462.607 377.739 463.061 377.731 463.515C377.731 464.457 377.825 465.704 377.893 467.197C378.02 470.31 378.274 474.602 378.393 479.361C378.393 480.548 378.393 481.711 378.393 482.83C378.412 483.921 378.329 485.012 378.147 486.088C378.028 487.023 377.695 487.919 377.174 488.706C376.653 489.493 375.959 490.15 375.144 490.626C374.573 490.913 373.937 491.046 373.299 491.011C372.661 490.977 372.042 490.777 371.505 490.431C371.217 490.24 370.969 489.995 370.776 489.71C370.706 489.615 370.654 489.509 370.623 489.396C370.894 489.747 371.225 490.048 371.599 490.286C372.114 490.58 372.695 490.739 373.287 490.75C373.88 490.76 374.466 490.621 374.992 490.346C375.743 489.874 376.379 489.24 376.854 488.49C377.328 487.739 377.628 486.893 377.731 486.011C377.895 484.959 377.966 483.895 377.943 482.83C377.943 481.711 377.944 480.557 377.901 479.369C377.782 474.619 377.579 470.318 377.528 467.205C377.528 465.645 377.528 464.389 377.528 463.515C377.527 463.061 377.564 462.607 377.638 462.158Z" fill="#263238"/>
<path d="M401.084 462.158C401.16 462.606 401.194 463.061 401.186 463.515C401.186 464.457 401.279 465.704 401.338 467.197C401.474 470.31 401.72 474.602 401.839 479.361C401.839 480.548 401.839 481.711 401.839 482.83C401.856 483.921 401.777 485.011 401.601 486.088C401.481 487.023 401.147 487.919 400.627 488.705C400.106 489.492 399.412 490.149 398.599 490.626C398.026 490.913 397.388 491.045 396.749 491.011C396.109 490.977 395.49 490.777 394.951 490.431C394.665 490.241 394.419 489.996 394.23 489.71C394.156 489.617 394.102 489.51 394.069 489.396C394.343 489.744 394.673 490.045 395.044 490.286C395.56 490.58 396.14 490.739 396.733 490.75C397.326 490.76 397.912 490.621 398.437 490.346C399.192 489.877 399.83 489.244 400.305 488.493C400.779 487.742 401.078 486.894 401.177 486.011C401.345 484.96 401.416 483.895 401.389 482.83C401.389 481.711 401.389 480.557 401.347 479.369C401.228 474.619 401.025 470.318 400.974 467.205C400.974 465.645 400.974 464.389 400.974 463.515C400.973 463.061 401.01 462.607 401.084 462.158Z" fill="#263238"/>
<path d="M430.205 482.423C430.17 482.625 430.111 482.821 430.027 483.008C429.882 483.381 429.721 483.95 429.399 484.645C428.556 486.625 427.516 488.515 426.294 490.286C424.494 492.926 422.387 495.344 420.017 497.488C418.612 498.745 417.133 499.918 415.589 501C413.918 502.148 412.169 503.179 410.356 504.087C406.862 505.875 403.157 507.215 399.328 508.074C396.213 508.728 393.036 509.044 389.853 509.016C387.13 509.016 384.942 508.855 383.423 508.744L381.684 508.609C381.479 508.599 381.274 508.571 381.074 508.524C381.277 508.509 381.481 508.509 381.684 508.524L383.432 508.583C384.95 508.634 387.147 508.736 389.853 508.71C393.019 508.694 396.175 508.347 399.269 507.675C403.05 506.799 406.708 505.46 410.16 503.689C411.953 502.788 413.684 501.771 415.343 500.643C416.874 499.576 418.341 498.421 419.737 497.183C422.1 495.075 424.215 492.704 426.04 490.117C427.273 488.372 428.344 486.518 429.238 484.577C429.586 483.899 429.772 483.339 429.942 482.974C430.018 482.785 430.106 482.601 430.205 482.423Z" fill="#263238"/>
<path d="M377.129 461.216C376.953 460.92 376.758 460.637 376.544 460.368C376.232 460.034 375.857 459.765 375.44 459.577C375.024 459.39 374.574 459.286 374.118 459.273C373.442 459.268 372.772 459.407 372.155 459.682C371.537 459.957 370.986 460.362 370.538 460.868C370.011 461.464 369.638 462.181 369.452 462.955C369.269 463.807 369.186 464.679 369.206 465.55C369.206 469.198 369.249 472.506 369.206 474.881C369.206 476.01 369.206 476.951 369.206 477.715C369.223 478.064 369.198 478.414 369.13 478.758C369.066 478.414 369.034 478.064 369.036 477.715C369.036 476.96 368.977 476.018 368.935 474.881C368.875 472.489 368.807 469.19 368.782 465.55C368.76 464.641 368.851 463.732 369.053 462.845C369.255 462.004 369.67 461.23 370.258 460.597C370.746 460.054 371.348 459.625 372.022 459.342C372.695 459.059 373.422 458.929 374.151 458.96C374.643 458.986 375.123 459.115 375.561 459.339C376 459.562 376.386 459.875 376.696 460.257C376.856 460.468 376.987 460.699 377.086 460.944C377.12 461.123 377.146 461.207 377.129 461.216Z" fill="white"/>
<path d="M392.669 463.209C392.788 463.209 392.89 467.679 392.89 473.193C392.89 478.707 392.788 483.177 392.669 483.177C392.551 483.177 392.449 478.707 392.449 473.193C392.449 467.679 392.542 463.209 392.669 463.209Z" fill="white"/>
<path d="M385.553 443.92C385.378 443.939 385.201 443.939 385.027 443.92C384.687 443.92 384.178 443.92 383.534 443.92C381.709 443.98 379.892 444.176 378.096 444.505C371.251 445.78 364.92 449.009 359.87 453.804C354.82 458.598 351.266 464.752 349.637 471.522C349.468 472.15 349.383 472.642 349.298 472.973C349.267 473.146 349.221 473.316 349.162 473.482C349.156 473.305 349.173 473.128 349.213 472.956C349.273 472.625 349.323 472.107 349.468 471.488C349.832 469.685 350.352 467.917 351.02 466.204C353.212 460.501 356.863 455.474 361.607 451.625C366.351 447.775 372.022 445.238 378.054 444.268C379.868 443.964 381.703 443.811 383.542 443.81C384.195 443.81 384.696 443.852 385.035 443.86C385.209 443.861 385.383 443.881 385.553 443.92Z" fill="white"/>
<path d="M363.37 400.701C363.339 400.868 363.288 401.03 363.218 401.185C363.082 401.541 362.904 401.982 362.692 402.525C362.48 403.068 362.174 403.814 361.843 404.654C361.513 405.494 361.182 406.435 360.851 407.504C360.52 408.573 360.13 409.735 359.791 410.999C359.451 412.263 359.104 413.629 358.756 415.062C358.063 418.19 357.542 421.353 357.195 424.537C356.881 427.725 356.74 430.928 356.771 434.131C356.813 435.607 356.839 437.007 356.949 438.321C357.059 439.636 357.144 440.866 357.263 441.96C357.382 443.055 357.534 444.064 357.653 444.946C357.772 445.828 357.891 446.583 358.009 447.203C358.128 447.822 358.179 448.246 358.247 448.619C358.281 448.784 358.298 448.952 358.298 449.12C358.226 448.967 358.177 448.804 358.154 448.636C358.077 448.271 357.967 447.788 357.84 447.228C357.712 446.668 357.543 445.871 357.407 444.989C357.271 444.106 357.076 443.114 356.957 441.994C356.839 440.875 356.669 439.662 356.584 438.347C356.499 437.032 356.423 435.615 356.364 434.106C356.308 430.883 356.438 427.66 356.754 424.452C357.102 421.251 357.638 418.073 358.357 414.935C358.722 413.501 359.044 412.127 359.443 410.863C359.842 409.599 360.189 408.429 360.554 407.368C360.919 406.308 361.292 405.367 361.614 404.535C361.937 403.704 362.234 403 362.463 402.432L363.065 401.117C363.152 400.968 363.255 400.829 363.37 400.701Z" fill="white"/>
<path d="M364.634 356.592C364.634 356.592 364.286 357.05 363.786 357.941C363.098 359.213 362.62 360.588 362.369 362.012C362.019 364.135 361.846 366.282 361.852 368.433C361.784 370.868 361.767 373.523 361.852 376.365C361.988 381.98 362.446 387.061 362.87 390.726C363.09 392.499 363.277 393.966 363.413 395.052C363.472 395.527 363.523 395.9 363.565 396.231C363.586 396.372 363.586 396.514 363.565 396.655C363.51 396.525 363.473 396.388 363.455 396.248C363.396 395.934 363.319 395.544 363.226 395.086C363.039 394.068 362.793 392.592 362.539 390.76C361.894 385.977 361.512 381.163 361.394 376.339C361.326 373.515 361.394 370.834 361.445 368.391C361.46 366.22 361.668 364.054 362.064 361.919C362.344 360.483 362.875 359.107 363.633 357.856C363.843 357.514 364.082 357.19 364.346 356.889C364.429 356.778 364.526 356.679 364.634 356.592Z" fill="white"/>
<path d="M447.204 330.033C447.036 330.129 446.856 330.203 446.669 330.254L445.092 330.814L439.273 332.807C432.881 334.95 426.604 337.422 420.467 340.212C414.327 343.027 408.532 346.539 403.196 350.68C401.169 352.291 399.6 353.691 398.556 354.692C398.013 355.184 397.632 355.591 397.343 355.846C397.211 355.988 397.066 356.118 396.911 356.236C396.911 356.236 397.029 356.066 397.284 355.786C397.538 355.506 397.912 355.082 398.429 354.573C399.877 353.112 401.403 351.73 403.001 350.434C408.306 346.202 414.109 342.635 420.28 339.814C426.442 337.007 432.764 334.566 439.213 332.502C441.682 331.653 443.692 331.068 445.075 330.644L446.678 330.16C446.849 330.102 447.025 330.06 447.204 330.033Z" fill="white"/>
<path d="M476.731 351.053C476.613 351.162 476.485 351.262 476.35 351.35L475.221 352.147C474.229 352.826 472.821 353.843 471.116 355.133C469.411 356.422 467.418 358.025 465.271 359.875C463.125 361.724 460.877 363.878 458.604 366.228C456.331 368.578 454.295 370.936 452.505 373.133C450.715 375.33 449.205 377.374 447.984 379.147C446.762 380.92 445.795 382.345 445.151 383.388L444.396 384.542C444.32 384.686 444.223 384.818 444.107 384.932C444.168 384.783 444.239 384.639 444.319 384.5C444.506 384.186 444.727 383.787 445.007 383.295C445.6 382.252 446.525 380.75 447.721 378.994C448.917 377.238 450.427 375.135 452.191 372.904C453.956 370.673 456.008 368.315 458.282 365.948C460.555 363.581 462.862 361.461 465.008 359.595C467.155 357.729 469.182 356.202 470.946 354.904C472.711 353.606 474.119 352.664 475.145 352.037L476.316 351.307C476.439 351.2 476.58 351.114 476.731 351.053Z" fill="white"/>
<path d="M607.465 410.066C607.879 410.739 608.214 411.456 608.466 412.204C609.166 413.974 609.752 415.788 610.222 417.633C610.687 419.478 611.035 421.351 611.265 423.24C611.402 424.021 611.448 424.815 611.401 425.606C611.202 424.845 611.055 424.072 610.96 423.291C610.714 421.857 610.332 419.898 609.789 417.743C609.246 415.589 608.644 413.688 608.177 412.314C607.885 411.584 607.647 410.832 607.465 410.066Z" fill="white"/>
<path d="M587.166 507.318L586.751 507.632L585.504 508.48L583.468 509.914L582.162 510.822L580.643 511.806C574.615 515.798 568.336 519.399 561.846 522.587C559.785 523.596 557.605 524.589 555.331 525.624L551.819 527.117L550.004 527.88L548.138 528.601L544.312 530.052L540.309 531.434C538.96 531.918 537.569 532.342 536.161 532.766C534.753 533.19 533.336 533.674 531.868 534.047C525.776 535.769 519.594 537.159 513.351 538.212C506.652 539.391 499.882 540.122 493.086 540.4C486.294 540.703 479.488 540.491 472.728 539.764L470.285 539.527C469.437 539.442 468.673 539.306 467.867 539.204L463.117 538.526L458.494 537.677L456.221 537.253L453.998 536.744C443.519 534.442 433.29 531.115 423.461 526.811C416.828 523.954 410.444 520.549 404.375 516.632C402.195 515.3 400.635 514.087 399.532 513.29L398.293 512.382L397.886 512.069C397.886 512.069 398.039 512.153 398.319 512.349L399.583 513.197C400.702 513.943 402.28 515.156 404.469 516.471C410.56 520.339 416.954 523.709 423.588 526.548C433.407 530.805 443.618 534.095 454.075 536.371L456.297 536.872L458.562 537.296L463.177 538.144L467.918 538.814C468.716 538.916 469.513 539.052 470.327 539.136L472.77 539.366C479.511 540.081 486.297 540.291 493.069 539.993C499.844 539.714 506.594 538.991 513.275 537.83C519.502 536.784 525.67 535.405 531.75 533.699C533.217 533.326 534.625 532.851 536.033 532.427C537.441 532.003 538.833 531.579 540.181 531.104L544.177 529.738L548.011 528.279L549.877 527.575L551.684 526.82L555.196 525.344C557.469 524.309 559.649 523.325 561.702 522.333C568.197 519.189 574.491 515.648 580.55 511.729L582.077 510.762L583.392 509.872L585.453 508.472L586.725 507.624C587.014 507.386 587.166 507.318 587.166 507.318Z" fill="#263238"/>
<path d="M550.632 516.378L567.682 559.978H579.337L581.873 556.178L584.859 559.978H588.982L590.508 490.888L550.632 516.378Z" fill="#92E3A9"/>
<path d="M443.539 522.52L457.959 559.979H471.192L473.907 555.67L476.519 560.013H479.811C479.811 560.013 481.253 517.753 479.811 516.548C478.368 515.344 443.539 522.52 443.539 522.52Z" fill="#92E3A9"/>
<path d="M611.867 438.797C611.874 438.879 611.874 438.961 611.867 439.043C611.867 439.229 611.867 439.475 611.808 439.772C611.751 440.445 611.666 441.378 611.553 442.572C611.485 443.182 611.417 443.852 611.35 444.59C611.282 445.328 611.104 446.117 610.968 446.974C610.662 448.671 610.416 450.647 609.865 452.759C609.611 453.82 609.356 454.931 609.085 456.093C608.813 457.255 608.398 458.426 608.041 459.656C607.371 462.141 606.345 464.694 605.369 467.4C600.76 479.089 594.008 489.814 585.461 499.023C583.45 501.093 581.576 503.095 579.633 504.783C578.675 505.631 577.792 506.479 576.868 507.26L574.196 509.406C572.499 510.814 570.871 511.891 569.463 512.901C568.75 513.393 568.097 513.868 567.478 514.275L565.739 515.327L563.33 516.777L562.702 517.142C562.632 517.185 562.558 517.222 562.481 517.252C562.481 517.252 562.541 517.193 562.677 517.1L563.287 516.701L565.645 515.182L567.342 514.097C567.953 513.69 568.597 513.198 569.301 512.697C570.693 511.671 572.338 510.585 573.984 509.16L576.63 506.997C577.546 506.242 578.42 505.368 579.37 504.511C581.296 502.815 583.145 500.813 585.147 498.743C593.613 489.539 600.331 478.869 604.971 467.256C605.972 464.558 606.99 462.014 607.677 459.554C608.041 458.324 608.449 457.153 608.737 456.008L609.585 452.691C610.154 450.588 610.433 448.628 610.747 446.932C610.891 446.083 611.061 445.295 611.163 444.557C611.265 443.819 611.333 443.157 611.4 442.546C611.553 441.367 611.663 440.434 611.748 439.764L611.85 439.043C611.846 438.96 611.851 438.878 611.867 438.797Z" fill="white"/>
<g opacity="0.2">
<path d="M593.426 402.017C589.55 392.432 581.118 383.355 571.372 379.42C569.515 378.684 567.51 378.4 565.521 378.591C563.533 378.783 561.619 379.445 559.937 380.522C558.255 381.599 556.853 383.061 555.847 384.787C554.841 386.512 554.26 388.452 554.152 390.447C554.152 390.515 554.152 390.574 554.152 390.633C553.847 396.775 556.256 402.738 559.242 408.133C562.228 413.528 565.748 418.626 568.047 424.326C571.833 433.839 571.954 444.418 568.386 454.015C566.113 460.055 562.338 466.485 565.756 472.507C567.996 476.452 572.5 478.394 577.021 477.987C585.682 477.198 590.178 469.377 594.283 462.277C597.583 456.56 600.297 447.67 600.458 440.961C600.906 427.627 598.509 414.352 593.426 402.017Z" fill="white"/>
</g>
<path d="M397.564 422.739C397.819 424.022 397.655 425.353 397.095 426.536C396.536 427.719 395.611 428.69 394.457 429.307C393.303 429.924 391.981 430.153 390.687 429.961C389.393 429.769 388.194 429.166 387.269 428.241C386.344 427.316 385.741 426.117 385.549 424.823C385.357 423.529 385.586 422.207 386.203 421.053C386.82 419.899 387.791 418.974 388.974 418.415C390.157 417.855 391.488 417.691 392.771 417.946C393.954 418.182 395.04 418.764 395.893 419.617C396.746 420.47 397.327 421.556 397.564 422.739Z" fill="#263238"/>
<path d="M463.575 422.739C463.83 424.022 463.665 425.354 463.105 426.537C462.545 427.719 461.619 428.691 460.465 429.307C459.31 429.923 457.988 430.151 456.694 429.958C455.399 429.765 454.201 429.161 453.277 428.235C452.352 427.309 451.75 426.11 451.559 424.815C451.369 423.52 451.599 422.198 452.218 421.045C452.836 419.892 453.809 418.967 454.992 418.409C456.176 417.851 457.508 417.689 458.791 417.946C459.973 418.183 461.058 418.764 461.91 419.617C462.761 420.47 463.341 421.556 463.575 422.739Z" fill="#263238"/>
<path d="M591.424 372.921C591.273 372.777 591.131 372.624 591 372.463C590.711 372.115 590.338 371.614 589.863 371.097C589.388 370.58 588.777 369.765 588.056 368.942C587.335 368.12 586.538 367.153 585.588 366.152C584.638 365.151 583.637 364.023 582.492 362.869C581.346 361.715 580.108 360.511 578.793 359.238C576.13 356.761 573.101 354.149 569.776 351.545C566.451 348.941 563.126 346.718 560.038 344.759C558.486 343.809 557.018 342.892 555.593 342.112C554.168 341.332 552.862 340.585 551.632 339.94C550.402 339.296 549.291 338.753 548.315 338.244C547.34 337.735 546.475 337.353 545.77 337.039L544.159 336.284C543.969 336.199 543.785 336.103 543.607 335.996C543.809 336.044 544.005 336.112 544.193 336.2L545.847 336.878C546.559 337.175 547.425 337.548 548.392 338.023C549.359 338.498 550.529 338.999 551.785 339.652C553.04 340.305 554.372 340.967 555.78 341.773C557.188 342.579 558.698 343.469 560.267 344.394C563.372 346.336 566.705 348.635 570.056 351.18C573.407 353.725 576.426 356.422 579.082 358.933C580.396 360.205 581.626 361.41 582.763 362.597C583.9 363.785 584.909 364.888 585.825 365.931C586.741 366.974 587.522 367.925 588.251 368.764C588.981 369.604 589.541 370.351 590.007 370.97L591.084 372.386C591.211 372.555 591.325 372.734 591.424 372.921Z" fill="white"/>
<path d="M527.296 345.513C527.072 345.461 526.851 345.396 526.635 345.318L524.769 344.674C523.971 344.385 522.979 344.037 521.817 343.698C520.654 343.359 519.348 342.901 517.864 342.545L515.539 341.925C514.734 341.722 513.885 341.552 512.995 341.357C511.247 340.933 509.356 340.627 507.362 340.28C498.707 338.881 489.906 338.627 481.185 339.525C479.183 339.762 477.275 339.957 475.51 340.28C474.62 340.424 473.763 340.543 472.965 340.704L470.616 341.179C469.114 341.459 467.783 341.832 466.595 342.112C465.407 342.392 464.407 342.672 463.592 342.918L461.692 343.444C461.474 343.518 461.25 343.572 461.022 343.605C461.231 343.508 461.446 343.426 461.667 343.359L463.541 342.748C464.39 342.477 465.357 342.171 466.536 341.9C467.715 341.628 469.08 341.196 470.548 340.899L472.898 340.39C473.746 340.22 474.594 340.102 475.442 339.94C477.215 339.601 479.124 339.398 481.134 339.143C489.893 338.199 498.74 338.453 507.43 339.898C509.424 340.263 511.324 340.585 513.071 341.026C513.919 341.23 514.768 341.399 515.616 341.62L517.932 342.265C519.416 342.646 520.722 343.113 521.884 343.486C523.047 343.859 524.022 344.224 524.819 344.538L526.66 345.259C526.879 345.326 527.092 345.411 527.296 345.513Z" fill="white"/>
<path d="M574.62 205.42C611.689 205.42 641.74 175.369 641.74 138.3C641.74 101.23 611.689 71.1797 574.62 71.1797C537.551 71.1797 507.5 101.23 507.5 138.3C507.5 175.369 537.551 205.42 574.62 205.42Z" fill="#92E3A9" stroke="#002346" stroke-miterlimit="10"/>
<path d="M574.64 193.53C605.143 193.53 629.87 168.803 629.87 138.3C629.87 107.798 605.143 83.0703 574.64 83.0703C544.138 83.0703 519.41 107.798 519.41 138.3C519.41 168.803 544.138 193.53 574.64 193.53Z" fill="white" stroke="#002346" stroke-miterlimit="10"/>
<path d="M588.3 184.38L584.4 173.64C577.63 175.98 569.99 176.6 564.97 175.41L565.16 167.28C571.31 168.42 577.64 167.9 583.52 165.78C591.76 162.78 595.74 156.41 593.52 150.36C591.29 144.31 585.57 142.53 575.83 142.48C562.45 142.48 553.37 140.3 550.01 131.06C546.81 122.24 551.21 113.05 561.31 107.58L557.41 96.8405L564.55 94.2305L568.31 104.54C573.57 102.66 579.2 102.06 584.73 102.78L584.37 110.85C579 110.05 573.52 110.63 568.45 112.55C559.53 115.79 557.94 121.9 559.48 126.14C561.49 131.67 566.78 132.88 578.26 133.04C591.83 133.15 599.87 136.48 603.31 145.89C606.37 154.27 602.84 164.45 591.56 170.61L595.57 181.66L588.32 184.37L588.3 184.38Z" fill="#92E3A9" stroke="#002346" stroke-miterlimit="10"/>
<path d="M534.12 207.23C534.12 207.23 533.55 202.31 530.39 198.7C530.39 198.7 520.01 190.58 523.17 186.52C523.17 186.52 521.36 184.26 522.72 181.56L530.39 169.38C530.39 169.38 532.2 167.12 534 168.93C534 168.93 537.16 166.67 538.06 169.83C538.06 169.83 541.22 171.18 539.41 176.15L536.78 181.78C536.49 182.4 536.78 183.13 537.42 183.39C538.02 183.63 538.71 183.34 538.96 182.74L540.04 180.14C540.4 179.27 541.5 178.99 542.23 179.58C542.7 179.96 542.88 180.59 542.68 181.16L538.51 192.85L543.59 204.09L534.11 207.25L534.12 207.23Z" fill="#F1B2C0" stroke="#002346" stroke-miterlimit="10"/>
<path d="M523.18 186.51C523.18 186.51 521.83 191.02 526.34 191.47C526.34 191.47 526.34 193.73 530.85 193.28C530.85 193.28 532.2 196.89 537.62 194.18" stroke="#002346" stroke-linecap="round" stroke-linejoin="round"/>
<path d="M654.79 637.2L654.6 641.91C654.52 643.9 656.11 645.56 658.1 645.56H686.14C688.08 645.56 689.65 643.99 689.65 642.05V638.79L673.86 633.37L654.79 637.19V637.2Z" fill="white" stroke="#002346" stroke-miterlimit="10"/>
<path d="M668.89 592.77L668.44 610.82L685.59 623L686.94 619.84L686.49 612.17L689.6 591.78L668.89 592.77Z" fill="#F1B2C0" stroke="#002346" stroke-miterlimit="10"/>
<path d="M613.64 601.98L613.34 608.26L617.44 624.81L637.75 617.59L636.63 597.4L613.64 601.98Z" fill="#F1B2C0" stroke="#002346" stroke-miterlimit="10"/>
<path d="M646.32 144.2L651.74 131.56C651.74 131.56 689.43 142.87 716.8 162.25C718.74 163.63 719.91 165.85 719.92 168.23C719.92 178.6 719.3 209.14 712.48 241.5L694.61 209.63L697.32 179.39L646.33 144.19L646.32 144.2Z" fill="#455A64" stroke="#002346" stroke-miterlimit="10"/>
<path d="M705.9 303.5L709.65 330.18C709.83 331.43 709.02 332.6 707.79 332.88L702.7 334.05C702.56 333.35 702.43 332.64 702.29 331.92C702.29 327.49 698.77 323.86 694.34 323.72C684.04 323.41 664.11 325.7 636.89 342.13C634.87 343.35 633.46 345.39 633.05 347.71L632.61 350.18C631.09 350.53 629.64 349.38 629.64 347.81V338.23L630.03 319.81C630.07 317.97 629.73 316.14 629.03 314.44L626.03 307.1L585.41 298.98V256.11L622.41 260.17L640.46 252.05L668.89 242.12L684.68 234L694.61 209.63L720.33 254.76L705.89 303.5H705.9Z" fill="#92E3A9" stroke="#002346" stroke-miterlimit="10"/>
<path d="M642.26 256.56L653.72 295.44C654.04 296.54 655.61 296.5 655.89 295.39L667.53 247.98C667.53 247.98 658.05 255.2 642.26 256.55V256.56Z" fill="#455A64" stroke="#002346" stroke-miterlimit="10"/>
<path d="M591.27 258.82L592.109 300.26" stroke="#002346" stroke-linecap="round" stroke-linejoin="round"/>
<path d="M623.31 276.42L623.68 289.23C623.73 290.88 623.58 292.53 623.25 294.14C622.65 297.03 622.19 302.63 626.02 307.1" stroke="#002346" stroke-linecap="round" stroke-linejoin="round"/>
<path d="M684.68 234C684.68 234 683.78 244.83 686.94 251.6" stroke="#002346" stroke-linecap="round" stroke-linejoin="round"/>
<path d="M690.67 220.27L713.57 258.37" stroke="#002346" stroke-linecap="round" stroke-linejoin="round"/>
<path d="M707.25 271.46C707.25 271.46 702.74 289.06 705.9 303.5" stroke="#002346" stroke-linecap="round" stroke-linejoin="round"/>
<path d="M709.96 425.34L698.23 592.31L666.64 594.12L662.13 432.11L639.57 494.39L644.99 595.93L609.79 602.7L594.81 489.32C594.27 485.23 594.62 481.07 595.84 477.14L629.19 369.4L632.62 350.21L633.06 347.74C633.48 345.41 634.88 343.38 636.9 342.16C664.14 325.71 684.08 323.44 694.38 323.75C698.74 323.88 702.3 327.59 702.3 331.95C702.44 332.66 702.58 333.37 702.71 334.08C713.94 392.76 709.97 425.37 709.97 425.37L709.96 425.34Z" fill="#455A64" stroke="#002346" stroke-miterlimit="10"/>
<path d="M662.12 432.11L660.77 373.9" stroke="#002346" stroke-linecap="round" stroke-linejoin="round"/>
<path d="M682.09 612.66C679.2 608.4 673.36 607.09 669.02 609.86C667.87 610.59 667.09 611.27 665.74 614.88C665.74 614.88 663.33 621.321 661.05 626.531C660.08 628.751 658.02 632.08 656.38 633.85C655.65 634.64 654.92 635.77 654.8 637.2C654.71 638.27 655.42 639.23 656.46 639.47C658.4 639.93 662.75 640.4 672.51 640.14C672.51 640.14 684.24 640.14 689.66 638.79L687.5 620.68C687.44 620.18 687.06 619.78 686.56 619.7L684.69 619.39C684.69 619.39 684.22 615.8 682.09 612.66Z" fill="#455A64" stroke="#002346" stroke-miterlimit="10"/>
<path d="M684.68 619.39C684.68 619.84 681.97 632.48 681.97 632.48" stroke="#002346" stroke-linecap="round" stroke-linejoin="round"/>
<path d="M567.8 639.25L567.62 637.13C567.46 635.25 568.73 633.54 570.58 633.15C574.1 632.41 577.45 630.99 580.44 628.99L608.85 609.93C610.19 609.03 611.72 608.43 613.32 608.26C614.92 608.09 616.81 608.32 617.59 609.95C617.8 610.38 617.88 610.85 617.88 611.33V619.85L637.74 617.59L640 639.25H567.8Z" fill="#455A64" stroke="#002346" stroke-miterlimit="10"/>
<path d="M603.45 631.13L618.01 619.45" stroke="#002346" stroke-linecap="round" stroke-linejoin="round"/>
<path d="M638.4 623.82C638.4 623.82 628.11 630.12 625.71 639.42" stroke="#002346" stroke-linecap="round" stroke-linejoin="round"/>
<path d="M567.8 639.25V642.78C567.8 644.57 569.25 646.01 571.03 646.01H636.77C638.56 646.01 640 644.56 640 642.78V639.25H567.8Z" fill="white" stroke="#002346" stroke-miterlimit="10"/>
<path d="M659.13 134.12C659.13 134.12 659.58 142.24 653.55 147.35" stroke="#002346" stroke-linecap="round" stroke-linejoin="round"/>
<path d="M697.32 179.4L702.28 182.55" stroke="#002346" stroke-linecap="round" stroke-linejoin="round"/>
<path d="M533.5 207.37L545.68 202.86L570.2 251.91C570.96 253.43 572.36 254.52 574.01 254.9L585.39 257.47V283.19L559.24 275.02C557.52 274.48 556.17 273.16 555.58 271.46L533.5 207.37Z" fill="#455A64" stroke="#002346" stroke-miterlimit="10"/>
<path d="M538.47 214.59C538.47 214.59 545.49 212.43 549.02 209.93" stroke="#002346" stroke-linecap="round" stroke-linejoin="round"/>
<path d="M644.97 235.81L646.32 240.86C646.61 241.95 646.42 243.12 645.79 244.06L640.46 252.06L642.27 256.57C642.27 256.57 657.16 255.67 667.54 248L668.89 242.13H667.67C666.51 242.13 665.48 241.39 665.11 240.3L658.7 221.5L648.59 228.15L644.98 235.82L644.97 235.81Z" fill="#F1B2C0" stroke="#002346" stroke-miterlimit="10"/>
<path d="M656.121 204.219C654.641 195.115 646.064 188.934 636.963 190.413C627.862 191.892 621.684 200.471 623.163 209.575L625.399 223.334C626.878 232.438 635.455 238.619 644.556 237.14C653.657 235.661 659.836 227.082 658.357 217.978L656.121 204.219Z" fill="#F1B2C0" stroke="#002346" stroke-miterlimit="10"/>
<path d="M646.94 142.7L639.05 130.21C638.87 129.92 638.47 129.86 638.22 130.09L634.9 133.11C634.24 133.71 633.23 133.73 632.55 133.16C631.74 132.48 631.68 131.26 632.43 130.51L634.42 128.52C634.81 128.13 634.86 127.5 634.52 127.06C634.11 126.52 633.32 126.46 632.84 126.94L631.04 128.74C627.43 131.9 626.53 129.19 626.53 129.19C626.08 129.42 625.66 129.56 625.26 129.65C623.04 130.13 621.6 127.35 623.21 125.74L631.68 117.27C632.09 116.86 632.14 116.21 631.79 115.75C631.39 115.21 630.61 115.13 630.1 115.56L625.92 119.14C625.25 119.72 624.24 119.68 623.61 119.05C622.97 118.41 622.94 117.38 623.55 116.71L628.11 111.67C629.77 109.83 632.56 109.57 634.54 111.05L636.46 112.49C646.39 111.14 644.13 116.1 644.13 116.1C645.41 117.69 645.33 119.29 645.17 120.09C645.1 120.47 645.13 120.86 645.27 121.22L648.23 128.62C648.5 129.29 648.93 129.89 649.49 130.35L651.47 132.31L646.96 142.69L646.94 142.7Z" fill="#F1B2C0" stroke="#002346" stroke-miterlimit="10"/>
<path d="M626.52 129.2L632.95 122.84" stroke="#002346" stroke-linecap="round" stroke-linejoin="round"/>
<path d="M534.01 168.91L527.36 180.15" stroke="#002346" stroke-linecap="round" stroke-linejoin="round"/>
<path d="M538.07 169.82L531.87 181.96" stroke="#002346" stroke-linecap="round" stroke-linejoin="round"/>
<path d="M185.91 641.05C185.91 641.05 185.91 642.47 185.23 643.95C184.65 645.21 183.38 646.02 181.99 646.02H152.91C149.99 646.02 147.31 644.31 146.19 641.62C145.16 639.13 144.95 635.27 147.11 629.33L153.7 609.13L155.79 609.25L185.92 641.07L185.91 641.05Z" fill="white" stroke="#002346" stroke-miterlimit="10"/>
<path d="M269.84 636.54V640.51C269.84 642.3 271.29 643.76 273.09 643.76H326.17C327.96 643.76 329.42 642.31 329.42 640.51V636.54H269.85H269.84Z" fill="white" stroke="#002346" stroke-miterlimit="10"/>
<path d="M274.46 607.8L274.81 617.14L278.87 626.61L291.5 626.16L298.22 611.4L298.49 608.07L274.46 607.8Z" fill="#F1B2C0" stroke="#002346" stroke-miterlimit="10"/>
<path d="M231.48 346.37L210.27 431.66L169.21 553.05L152.06 609.01L205.43 612.62L254.95 475.89L259.85 607.66L311.68 608.11L311.36 432.56V357.2L278.87 352.69L231.48 346.37Z" fill="#92E3A9" stroke="#002346" stroke-miterlimit="10"/>
<path d="M281.58 378.41L254.95 475.89" stroke="#002346" stroke-linecap="round" stroke-linejoin="round"/>
<path d="M288.8 385.18C288.8 385.18 282.93 395.49 275.71 400.27" stroke="#002346" stroke-linecap="round" stroke-linejoin="round"/>
<path d="M370.48 290.86L360.1 259.72L370.48 253.85C370.48 253.85 363.26 252.5 356.49 245.73L345.66 247.54C345.66 247.54 298.73 234.45 279.77 225.43C279.77 225.43 280.93 213.79 254.62 199.98C254.62 199.98 244.66 195.15 237.92 196.05C235.13 196.42 233.07 198.83 233.13 201.64C233.15 202.79 233.32 204.25 233.73 206.03C233.73 206.03 234.63 210.54 231.47 214.15C231.47 214.15 223.8 220.47 225.15 228.59C225.15 228.59 212.51 235.81 214.77 257.02C214.77 257.02 216.36 268.13 221.02 276.95C222.13 279.05 223.05 281.25 223.84 283.49C227.01 292.49 232.85 312.77 229.63 332.79C229.45 333.93 229.18 335.06 228.84 336.17C228.03 338.77 226.65 345.41 232.38 348.63C232.38 348.63 262.36 369.49 308.25 360.04C310.11 359.66 311.6 358.27 312.13 356.45C313.19 352.81 314.09 345.81 310.9 335.1C310.9 335.1 308.64 327.43 309.55 312.99L370.47 290.88L370.48 290.86Z" fill="#455A64" stroke="#002346" stroke-miterlimit="10"/>
<path d="M256.3 195.64L248.18 215.95C248.18 215.95 267.13 234 274.81 237.61C274.81 237.61 275.81 235.8 275.68 231.53C275.55 227.26 274.19 222.88 271.93 219.12L268.95 214.15L270.3 202.87L256.31 195.65L256.3 195.64Z" fill="#F1B2C0" stroke="#002346" stroke-miterlimit="10"/>
<path d="M248.18 215.95C248.18 215.95 239.48 207.6 238.28 201.9C238.02 200.66 239.04 199.53 240.3 199.61C242.51 199.75 246.59 200.56 253.02 203.83" stroke="#002346" stroke-linecap="round" stroke-linejoin="round"/>
<path d="M225.17 228.58C225.17 228.58 232.84 221.36 251.34 238.96" stroke="#002346" stroke-linecap="round" stroke-linejoin="round"/>
<path d="M253.6 243.03L292.37 266.77C295.89 268.92 300.06 269.74 304.13 269.06L357.39 260.18" stroke="#002346" stroke-linecap="round" stroke-linejoin="round"/>
<path d="M358.29 294.47C358.29 294.47 343.91 278.16 350.88 261.27" stroke="#002346" stroke-linecap="round" stroke-linejoin="round"/>
<path d="M345.66 247.54L338.89 249.79" stroke="#002346" stroke-linecap="round" stroke-linejoin="round"/>
<path d="M299.63 257.92C299.63 257.92 295.7 238.51 291.12 229.94" stroke="#002346" stroke-linecap="round" stroke-linejoin="round"/>
<path d="M279.77 225.43C279.77 225.43 279.77 227.69 278.87 229.94" stroke="#002346" stroke-linecap="round" stroke-linejoin="round"/>
<path d="M236.9 288.15C236.9 288.15 279.77 319.74 309.56 312.97" stroke="#002346" stroke-linecap="round" stroke-linejoin="round"/>
<path d="M155.78 609.23L148.97 632.94C147.8 637 150.85 641.05 155.08 641.05H185.9C185.9 641.05 186.35 638.79 183.64 635.63C183.64 635.63 174.61 624.35 181.57 610.74L155.77 609.23H155.78Z" fill="#455A64" stroke="#002346" stroke-miterlimit="10"/>
<path d="M274.81 617.14L280.68 621.2C280.68 621.2 285.64 623.91 285.64 618.49C285.64 618.49 284.74 612.17 291.06 610.37C291.06 610.37 298.55 608.12 300.22 614.2C300.85 616.49 302.05 618.59 303.85 620.13C306 621.97 309.5 624.37 315.16 627.1C317.22 628.09 319.45 628.65 321.73 628.85C324.81 629.12 329.42 630.52 329.42 636.54H269.85C269.85 636.54 269.85 633.38 271.66 627.06C271.66 627.06 272.56 624.35 274.82 617.13L274.81 617.14Z" fill="#455A64" stroke="#002346" stroke-miterlimit="10"/>
<path d="M397.93 260.89C434.999 260.89 465.05 230.84 465.05 193.77C465.05 156.701 434.999 126.65 397.93 126.65C360.861 126.65 330.81 156.701 330.81 193.77C330.81 230.84 360.861 260.89 397.93 260.89Z" fill="#92E3A9" stroke="#002346" stroke-miterlimit="10"/>
<path d="M397.94 249.02C428.443 249.02 453.17 224.292 453.17 193.79C453.17 163.287 428.443 138.56 397.94 138.56C367.437 138.56 342.71 163.287 342.71 193.79C342.71 224.292 367.437 249.02 397.94 249.02Z" fill="white" stroke="#002346" stroke-miterlimit="10"/>
<path d="M409.44 170.03C410.92 169.99 412.5 170 414.15 170.08C415.41 170.12 416.66 170.26 417.9 170.48L417.81 163.95C416.59 163.66 415.35 163.48 414.1 163.43C412.43 163.32 410.86 163.29 409.38 163.33C404.04 163.44 398.79 164.7 393.98 167.02C389.19 169.37 385.14 172.99 382.28 177.49C380.62 180.09 379.41 182.95 378.69 185.95L368.52 186.45L368.42 191.65L377.81 191.15C377.67 192.42 377.6 193.69 377.61 194.97C377.59 196.19 377.63 197.37 377.7 198.52L368.3 199.09L368.23 204.38L378.44 203.72C379.09 206.75 380.28 209.64 381.97 212.23C384.83 216.64 389 220.03 393.9 221.93C399 223.91 404.5 224.65 409.94 224.09C411.47 223.95 413.1 223.74 414.83 223.41C416.14 223.22 417.42 222.89 418.65 222.41L418.55 215.5C417.3 215.91 416.01 216.2 414.7 216.39C413 216.65 411.4 216.85 409.86 216.97C403.83 217.69 397.77 215.96 393.04 212.15C390.27 209.8 388.29 206.64 387.37 203.12L412 201.53L411.94 196.45L386.48 197.99C386.38 196.88 386.34 195.74 386.34 194.52C386.34 193.3 386.43 191.92 386.56 190.7L412 189.35L411.95 184.38L387.67 185.54C388.66 182.08 390.55 178.95 393.16 176.47C397.62 172.4 403.41 170.12 409.45 170.04L409.44 170.03Z" fill="#92E3A9" stroke="#002346" stroke-miterlimit="10"/>
<path d="M263.724 154.783L263.714 154.786C253.682 157.017 247.357 166.959 249.589 176.992L253.119 192.864C255.351 202.897 265.293 209.221 275.326 206.99L275.336 206.988C285.369 204.756 291.693 194.814 289.461 184.781L285.931 168.909C283.699 158.876 273.757 152.552 263.724 154.783Z" fill="#F1B2C0" stroke="#002346" stroke-miterlimit="10"/>
<path d="M359.77 259.65L381.88 247.92L387.16 242.95C388.52 241.67 390.63 241.6 392.07 242.8C393.66 244.13 393.86 246.5 392.5 248.07L385.94 255.6L394.42 260.04C395.11 260.4 395.86 260.63 396.64 260.7C399.3 260.94 405.82 261.2 411.68 258.93C412.74 258.52 413.95 258.81 414.68 259.68C415.58 260.75 415.49 262.33 414.47 263.3C412.53 265.14 409.04 267.83 404.45 268.69L399.49 269.59C399.49 269.59 398.14 271.4 393.17 272.3C393.17 272.3 385.5 276.36 371.51 275.46L365.51 276.56L359.77 259.67V259.65Z" fill="#F1B2C0" stroke="#002346" stroke-miterlimit="10"/>
<path d="M388.65 268.68L399.48 269.58" stroke="#002346" stroke-linecap="round" stroke-linejoin="round"/>
<path d="M352.75 126.68C367.59 74.8299 415.35 36.8799 471.98 36.8799C487.63 36.8799 502.6 39.7799 516.39 45.0699" stroke="white" stroke-linecap="round" stroke-linejoin="round"/>
<path d="M535.62 267.32C517.02 278.47 495.25 284.87 471.98 284.87C455 284.87 438.81 281.46 424.07 275.28" stroke="white" stroke-linecap="round" stroke-linejoin="round"/>
<path d="M517.98 38.8701L520.98 46.8701L512.98 51.8701" stroke="white" stroke-linecap="round" stroke-linejoin="round"/>
<path d="M422.87 281.85L420.01 273.8L428.09 268.94" stroke="white" stroke-linecap="round" stroke-linejoin="round"/>
<path d="M656.784 196.412C661.537 195.789 664.877 191.369 664.245 186.539C663.613 181.709 659.247 178.298 654.493 178.921C649.74 179.543 646.399 183.963 647.032 188.793C647.664 193.623 652.03 197.034 656.784 196.412Z" fill="#002346" stroke="#002346" stroke-miterlimit="10"/>
<path d="M652.158 200.424C655.81 199.946 658.377 196.544 657.89 192.826C657.403 189.107 654.047 186.481 650.395 186.959C646.742 187.437 644.176 190.839 644.663 194.558C645.15 198.276 648.505 200.903 652.158 200.424Z" fill="#FBE493" stroke="#002346" stroke-miterlimit="10"/>
<path d="M629.35 203.32C631.14 204.92 635.03 207.43 642.5 208.41C642.5 208.41 641.89 213.2 647.56 217.74C649.21 219.06 650.36 220.93 650.72 223.03C651.29 226.37 652.57 232.42 646.75 236.08C646.75 236.08 650.25 237.03 655.62 235.52C655.62 235.52 658.75 239.05 664.23 239.06C666.48 239.06 668.61 237.79 669.59 235.72C670.9 232.97 671.65 227.97 668.81 219.18C668.81 219.18 662.49 188.39 644.91 187.47C644.91 187.47 636.88 185.77 629.78 189.16C622.62 192.58 619.26 201.86 623.26 210.86L624.59 208.72C625.65 206.64 625.85 206.23 626.48 204.16C626.54 203.95 626.64 203.76 626.77 203.59C627.4 202.75 628.57 202.62 629.35 203.32Z" fill="#002346" stroke="#002346" stroke-miterlimit="10"/>
<path d="M653.099 217.695C655.016 217.444 656.313 215.283 655.997 212.868C655.68 210.453 653.87 208.699 651.954 208.95C650.037 209.201 648.74 211.362 649.056 213.777C649.372 216.192 651.182 217.946 653.099 217.695Z" fill="#F1B2C0" stroke="#002346" stroke-miterlimit="10"/>
<path d="M256.33 154.1C256.33 154.1 240.98 156.56 238.56 172.9C237.68 178.86 238.93 184.91 241.8 190.05C243.97 193.94 247.2 198.24 251.25 199.25C253.07 199.71 254.83 198.18 254.86 196.19C254.89 194.44 256.54 193 255.32 189.24C255.32 189.24 254.7 188.97 253.92 188.31C249.65 184.67 250.9 178.19 256.44 177.28C256.66 177.24 256.78 177.23 256.78 177.23C260.96 177.17 261.8 175.19 261.96 174.2C262.09 173.38 262.28 172.56 262.63 171.8C264.39 167.98 267.77 167.96 267.77 167.96L283.01 165.18C286.34 164.55 288.57 161.15 287.94 157.66C287.35 154.41 284.48 152.25 281.36 152.7C281.36 152.7 265.14 139.1 256.35 154.09L256.33 154.1Z" fill="#002346" stroke="#002346" stroke-miterlimit="10"/>
<path d="M252.838 194.354C255.616 193.434 256.926 189.84 255.763 186.327C254.6 182.815 251.404 180.713 248.626 181.633C245.847 182.553 244.537 186.146 245.7 189.659C246.863 193.172 250.059 195.274 252.838 194.354Z" fill="#F1B2C0" stroke="#002346" stroke-miterlimit="10"/>
<path d="M536.685 285.199C537.322 292.776 535.696 300.37 532.013 307.022C528.33 313.673 522.756 319.082 515.997 322.563C509.238 326.044 501.598 327.441 494.045 326.577C486.491 325.713 479.364 322.627 473.566 317.709C467.767 312.792 463.559 306.264 461.473 298.953C459.388 291.642 459.519 283.876 461.85 276.639C464.181 269.403 468.607 263.021 474.568 258.301C480.529 253.582 487.757 250.738 495.335 250.129C500.353 249.716 505.403 250.295 510.198 251.834C514.992 253.373 519.436 255.841 523.276 259.098C527.116 262.355 530.276 266.336 532.577 270.815C534.878 275.293 536.274 280.181 536.685 285.199Z" fill="#92E3A9"/>
<path d="M527.576 285.919C528.061 291.692 526.823 297.479 524.018 302.548C521.212 307.617 516.966 311.739 511.816 314.393C506.666 317.047 500.844 318.113 495.088 317.455C489.332 316.798 483.901 314.448 479.482 310.701C475.062 306.955 471.854 301.982 470.264 296.411C468.673 290.84 468.771 284.923 470.546 279.408C472.321 273.893 475.692 269.029 480.233 265.431C484.774 261.834 490.281 259.665 496.056 259.199C499.88 258.883 503.729 259.323 507.383 260.495C511.037 261.667 514.425 263.547 517.352 266.028C520.279 268.51 522.688 271.543 524.443 274.956C526.197 278.369 527.261 282.095 527.576 285.919Z" fill="#92E3A9"/>
<path d="M527.575 285.919C527.525 285.77 527.491 285.616 527.475 285.459C527.429 285.119 527.359 284.659 527.265 284.079C527.265 283.779 527.175 283.439 527.115 283.079C527.055 282.719 526.935 282.319 526.835 281.889C526.62 280.87 526.333 279.867 525.975 278.889C525.067 276.231 523.762 273.726 522.105 271.459C519.703 268.117 516.622 265.32 513.063 263.252C509.504 261.184 505.548 259.891 501.455 259.459C496.301 258.937 491.101 259.793 486.385 261.939C485.132 262.524 483.919 263.192 482.755 263.939C482.175 264.319 481.625 264.749 481.045 265.149C480.462 265.553 479.911 266.001 479.395 266.489C478.316 267.423 477.297 268.425 476.345 269.489C475.413 270.617 474.557 271.806 473.785 273.049C472.183 275.597 471.001 278.386 470.285 281.309C469.57 284.32 469.314 287.422 469.525 290.509C469.801 293.605 470.55 296.64 471.745 299.509C472.91 302.286 474.521 304.853 476.515 307.109C477.475 308.217 478.511 309.256 479.615 310.219C480.725 311.132 481.894 311.971 483.115 312.729C484.305 313.486 485.548 314.154 486.835 314.729C488.103 315.268 489.406 315.719 490.735 316.079C497.226 317.862 504.134 317.342 510.285 314.608C516.436 311.873 521.451 307.093 524.475 301.079C525.757 298.563 526.644 295.865 527.105 293.079C527.308 292.09 527.435 291.087 527.485 290.079C527.485 289.639 527.565 289.229 527.575 288.859C527.585 288.489 527.575 288.139 527.575 287.859C527.575 287.269 527.575 286.809 527.575 286.469C527.56 286.309 527.56 286.149 527.575 285.989C527.586 286.146 527.586 286.303 527.575 286.459C527.575 286.809 527.575 287.269 527.645 287.849C527.645 288.159 527.645 288.499 527.695 288.849C527.745 289.199 527.695 289.639 527.625 290.089C527.595 291.119 527.488 292.145 527.305 293.159C526.872 295.962 526.009 298.68 524.745 301.219C522.91 304.968 520.298 308.284 517.082 310.947C513.867 313.609 510.121 315.556 506.095 316.659C499.614 318.382 492.745 317.903 486.565 315.299C485.254 314.722 483.984 314.054 482.765 313.299C480.215 311.773 477.935 309.837 476.015 307.569C473.986 305.262 472.338 302.646 471.135 299.819C468.615 293.941 468.109 287.395 469.695 281.199C470.42 278.212 471.629 275.364 473.275 272.769C474.062 271.499 474.937 270.286 475.895 269.139C476.864 268.04 477.907 267.007 479.015 266.049C479.541 265.554 480.102 265.1 480.695 264.689C481.285 264.279 481.845 263.839 482.445 263.459C483.632 262.703 484.871 262.034 486.155 261.459C490.96 259.283 496.26 258.43 501.505 258.989C505.657 259.435 509.666 260.76 513.266 262.876C516.867 264.991 519.975 267.849 522.385 271.259C524.038 273.563 525.324 276.11 526.195 278.809C526.545 279.786 526.816 280.789 527.005 281.809C527.105 282.239 527.205 282.649 527.275 283.019C527.345 283.389 527.355 283.729 527.385 284.019C527.455 284.599 527.505 285.019 527.545 285.399C527.572 285.571 527.582 285.745 527.575 285.919Z" fill="#263238"/>
<g opacity="0.3">
<path d="M527.365 286.249C527.195 286.249 526.965 284.999 526.365 282.799C525.463 279.723 524.097 276.803 522.315 274.139C521.081 272.325 519.656 270.649 518.065 269.139C516.231 267.437 514.188 265.975 511.985 264.789C509.56 263.489 506.959 262.546 504.265 261.989C502.844 261.7 501.403 261.52 499.955 261.449C498.463 261.39 496.969 261.44 495.485 261.599C494.003 261.77 492.535 262.051 491.095 262.439C489.698 262.835 488.331 263.329 487.005 263.919C485.724 264.488 484.49 265.157 483.315 265.919C482.181 266.642 481.105 267.451 480.095 268.339C478.192 269.977 476.511 271.856 475.095 273.929C473.887 275.751 472.881 277.699 472.095 279.739C470.958 282.733 470.283 285.882 470.095 289.079C469.955 291.359 470.015 292.649 469.835 292.669C469.655 292.689 469.355 291.419 469.225 289.069C469.091 285.716 469.576 282.367 470.655 279.189C472.252 274.43 475.048 270.163 478.775 266.799C479.843 265.821 480.987 264.928 482.195 264.129C483.451 263.285 484.771 262.543 486.145 261.909C487.565 261.247 489.036 260.702 490.545 260.279C492.097 259.855 493.678 259.544 495.275 259.349C496.879 259.183 498.494 259.136 500.105 259.209C501.669 259.292 503.224 259.499 504.755 259.829C506.231 260.141 507.679 260.572 509.085 261.119C510.442 261.63 511.756 262.249 513.015 262.969C517.399 265.418 521.072 268.964 523.675 273.259C525.427 276.117 526.637 279.273 527.245 282.569C527.565 284.929 527.495 286.199 527.365 286.249Z" fill="black"/>
</g>
<g opacity="0.3">
<path d="M503.085 305.37L503.575 310.44L499.035 310.86L498.575 305.93C494.055 306.09 489.575 305.09 486.945 303.38L488.945 297.62C491.715 299.194 494.848 300.018 498.035 300.01L497.325 292.45C492.175 291.7 486.395 290.56 485.785 284.09C485.325 279.29 488.425 274.85 495.505 273.36L495.035 268.36L499.565 267.93L500.035 272.87C503.293 272.742 506.536 273.389 509.495 274.76L507.755 280.54C505.506 279.5 503.071 278.922 500.595 278.84L501.325 286.53C506.475 287.23 512.165 288.38 512.765 294.76C513.185 299.44 510.125 303.84 503.085 305.37ZM496.665 285.8L496.045 279.37C493.695 280.14 492.875 281.55 493.045 283.04C493.215 284.53 494.605 285.35 496.665 285.8ZM505.495 295.97C505.345 294.38 503.945 293.65 501.935 293.15L502.525 299.4C504.745 298.68 505.625 297.41 505.495 295.97Z" fill="black"/>
</g>
<path d="M173.28 332.58C161.15 338.86 151.85 349.68 145.16 361.58C138.47 373.48 134.16 386.58 129.9 399.58L126.16 466.5C140.27 442.5 151.6 414.26 154.66 386.58L145.27 385.74C151.57 384.74 156.85 380.22 160.22 374.81C163.59 369.4 165.31 363.16 167 357.02L155.54 358.72C164.596 352.613 170.949 343.251 173.28 332.58Z" fill="#455A64"/>
<g opacity="0.3">
<path d="M173.28 332.58C161.15 338.86 151.85 349.68 145.16 361.58C138.47 373.48 134.16 386.58 129.9 399.58L126.16 466.5C140.27 442.5 151.6 414.26 154.66 386.58L145.27 385.74C151.57 384.74 156.85 380.22 160.22 374.81C163.59 369.4 165.31 363.16 167 357.02L155.54 358.72C164.596 352.613 170.949 343.251 173.28 332.58Z" fill="black"/>
</g>
<path d="M124.07 482.15C124.07 482.15 93.4401 445.48 93.7901 410.48H106.17C106.17 410.48 92.7201 401.64 93.7901 396.69C94.8601 391.74 95.2101 373 95.2101 373L106.52 375.83C106.52 375.83 98.0301 371.59 96.9701 364.83C95.9101 358.07 99.4501 327 99.4501 327C99.4501 327 113.24 341.5 117.45 356.35C121.66 371.2 132.83 388.52 129.56 433.77C126.29 479.02 124.07 482.15 124.07 482.15Z" fill="#455A64"/>
<path d="M139.6 485.61C139.6 485.61 172.79 463.5 180.16 435.28L170.21 432.57C170.21 432.57 182.95 428.41 183.21 424.2C183.47 419.99 187.21 404.84 187.21 404.84L177.5 404.64C177.5 404.64 185.25 403.09 187.57 397.92C189.89 392.75 193.86 366.92 193.86 366.92C193.86 366.92 179.6 375.56 172.94 386.57C166.28 397.58 153.54 409.07 146.27 446.17C139 483.27 139.6 485.61 139.6 485.61Z" fill="#455A64"/>
<path d="M107.82 359.01C107.863 359.134 107.896 359.261 107.92 359.39L108.19 360.52C108.42 361.52 108.74 363 109.19 364.87C109.64 366.74 110.1 369.08 110.63 371.77C111.16 374.46 111.81 377.54 112.43 380.94C113.74 387.74 115.12 395.87 116.55 404.94C117.98 414.01 119.31 423.94 120.55 434.45C121.79 444.96 122.69 454.97 123.41 464.1C124.13 473.23 124.59 481.46 124.87 488.38C125.04 491.84 125.12 494.97 125.21 497.71C125.3 500.45 125.35 502.83 125.37 504.77C125.39 506.71 125.37 508.17 125.43 509.22V510.38C125.438 510.513 125.438 510.647 125.43 510.78C125.42 510.647 125.42 510.513 125.43 510.38C125.43 510.1 125.43 509.71 125.43 509.22C125.43 508.22 125.34 506.68 125.28 504.77C125.22 502.86 125.15 500.47 125.03 497.77C124.91 495.07 124.81 491.9 124.61 488.45C124.29 481.53 123.74 473.31 123.04 464.19C122.34 455.07 121.34 445.05 120.14 434.56C118.94 424.07 117.56 414.11 116.2 405.06C114.84 396.01 113.46 387.89 112.2 381.06C111.6 377.65 111 374.58 110.48 371.88C109.96 369.18 109.48 366.88 109.12 364.96C108.76 363.04 108.45 361.62 108.25 360.59C108.16 360.11 108.08 359.73 108.03 359.45C107.945 359.311 107.874 359.163 107.82 359.01Z" fill="#263238"/>
<path d="M119.82 504.6C119.82 504.6 91.82 472.79 83.08 453.6L89.66 450.8C84.89 451.58 80.01 449.54 76.32 446.43C72.63 443.32 69.9 439.15 67.26 435.15L75.9 433.7C67.9512 431.427 61.1828 426.181 57 419.05C67.21 420.73 76.45 426.34 84.07 433.35C90.24 439.03 95.46 445.62 100.47 452.35C102.924 455.628 105.057 459.134 106.84 462.82C111.55 472.57 119.84 492.92 119.82 504.6Z" fill="#455A64"/>
<path d="M180.6 385.47C180.575 385.586 180.531 385.697 180.47 385.8L180.04 386.72L178.33 390.25C177.57 391.77 176.66 393.64 175.63 395.83C174.6 398.02 173.38 400.49 172.11 403.25C169.52 408.76 166.55 415.37 163.35 422.75C160.15 430.13 156.81 438.32 153.45 446.97C150.09 455.62 147.11 463.97 144.45 471.56C141.79 479.15 139.6 486.07 137.81 491.88C136.89 494.78 136.12 497.43 135.42 499.74C134.72 502.05 134.13 504.05 133.66 505.74L132.56 509.5C132.43 509.9 132.33 510.22 132.26 510.5L132.14 510.83C132.146 510.714 132.166 510.6 132.2 510.49C132.27 510.24 132.35 509.91 132.45 509.49C132.69 508.59 133.03 507.32 133.45 505.7C133.87 504.08 134.45 502.05 135.12 499.7C135.79 497.35 136.54 494.7 137.44 491.82C139.19 485.98 141.44 479.08 143.97 471.45C146.5 463.82 149.57 455.5 152.91 446.82C156.25 438.14 159.67 429.99 162.86 422.6C166.05 415.21 169.1 408.6 171.73 403.13C173.02 400.38 174.25 397.91 175.31 395.74C176.37 393.57 177.31 391.74 178.1 390.2C178.89 388.66 179.47 387.54 179.89 386.71L180.37 385.81C180.434 385.688 180.511 385.574 180.6 385.47Z" fill="#263238"/>
<path d="M122.2 518.23C122.134 518.039 122.091 517.841 122.07 517.64L121.8 515.95C121.7 515.22 121.56 514.32 121.37 513.29C121.18 512.26 121 511.06 120.72 509.77C120.22 507.16 119.5 504.09 118.58 500.7C117.66 497.31 116.47 493.65 115.05 489.87C113.63 486.09 112.05 482.56 110.54 479.4C109.03 476.24 107.54 473.47 106.15 471.19C105.51 470.03 104.86 469.02 104.31 468.12C103.76 467.22 103.31 466.45 102.88 465.83L101.96 464.38C101.848 464.216 101.751 464.042 101.67 463.86C101.813 463.999 101.941 464.153 102.05 464.32L103.05 465.71C103.49 466.32 104.05 467.07 104.57 467.96C105.09 468.85 105.81 469.85 106.48 470.96C107.87 473.23 109.4 475.96 110.98 479.15C112.56 482.34 114.11 485.85 115.55 489.64C116.99 493.43 118.13 497.14 119.05 500.54C119.97 503.94 120.63 507.04 121.05 509.66C121.31 510.96 121.46 512.16 121.63 513.2C121.8 514.24 121.9 515.2 121.97 515.89C122.04 516.58 122.1 517.15 122.15 517.59C122.194 517.801 122.211 518.016 122.2 518.23Z" fill="#263238"/>
<path d="M159.19 510.75H97.8398V523.27H159.19V510.75Z" fill="#92E3A9"/>
<path d="M103.68 523.26L110.32 565.36H147.39L153.58 523.26H103.68Z" fill="#92E3A9"/>
<path d="M155.43 523.26C155.43 523.41 143.82 523.52 129.51 523.52C115.2 523.52 103.58 523.41 103.58 523.26C103.58 523.11 115.19 523 129.51 523C143.83 523 155.43 523.15 155.43 523.26Z" fill="#263238"/>
<path d="M751.139 534.075C752.077 534.527 752.914 535.163 753.601 535.944C754.288 536.726 754.811 537.638 755.139 538.625C755.77 540.6 755.948 542.692 755.659 544.745C755.209 548.745 752.929 552.745 750.489 555.965C747.119 553.035 746.349 547.905 746.119 545.285C745.759 541.135 747.619 533.415 751.119 534.035" fill="#455A64"/>
<path d="M754.429 562.606C754.198 561.463 754.275 560.28 754.651 559.177C755.027 558.074 755.689 557.09 756.569 556.326C757.46 555.578 758.491 555.016 759.602 554.672C760.713 554.329 761.882 554.211 763.039 554.326C763.576 554.317 764.109 554.427 764.6 554.646C765.09 554.865 765.527 555.19 765.879 555.596C766.135 556.031 766.27 556.526 766.27 557.031C766.27 557.536 766.135 558.031 765.879 558.466C765.368 559.337 764.637 560.057 763.759 560.556C760.849 562.386 757.689 563.616 754.389 562.626" fill="#455A64"/>
<path d="M750.119 574.866C750.131 574.589 750.171 574.315 750.239 574.046C750.339 573.466 750.479 572.716 750.639 571.826C751.014 569.355 751.788 566.96 752.929 564.736C754.118 562.515 755.874 560.648 758.019 559.326C758.674 558.938 759.372 558.629 760.099 558.406C760.349 558.326 760.559 558.286 760.689 558.256C760.762 558.243 760.836 558.243 760.909 558.256C759.94 558.583 759.008 559.012 758.129 559.536C756.054 560.878 754.354 562.726 753.189 564.906C752.062 567.11 751.27 569.469 750.839 571.906C750.639 572.836 750.479 573.586 750.349 574.106C750.289 574.364 750.212 574.618 750.119 574.866Z" fill="#263238"/>
<path d="M750.24 540.076C750.256 540.196 750.256 540.317 750.24 540.436C750.24 540.706 750.24 541.046 750.3 541.436C750.35 542.336 750.41 543.626 750.46 545.226C750.56 548.436 750.64 552.856 750.62 557.746C750.6 562.636 750.48 567.066 750.35 570.266C750.28 571.866 750.22 573.166 750.16 574.056C750.16 574.486 750.16 574.826 750.09 575.056C750.1 575.176 750.1 575.296 750.09 575.416C750.074 575.297 750.074 575.176 750.09 575.056C750.09 574.786 750.09 574.446 750.09 574.056C750.09 573.126 750.14 571.836 750.18 570.266C750.26 567.056 750.35 562.636 750.37 557.746C750.39 552.856 750.37 548.436 750.29 545.236C750.29 543.666 750.29 542.376 750.23 541.446C750.23 541.016 750.23 540.676 750.23 540.446C750.224 540.323 750.228 540.199 750.24 540.076Z" fill="#263238"/>
<path d="M748.659 565.046C748.242 562.624 747.254 560.336 745.778 558.372C744.302 556.407 742.379 554.821 740.169 553.746C739.039 553.206 737.569 552.856 736.649 553.696C735.729 554.536 735.929 556.036 736.379 557.196C737.368 559.61 739.05 561.677 741.212 563.136C743.375 564.595 745.921 565.382 748.529 565.396" fill="#455A64"/>
<path d="M740.709 557.506C740.957 557.589 741.198 557.693 741.429 557.816C741.703 557.945 741.97 558.088 742.229 558.246C742.573 558.446 742.906 558.663 743.229 558.896C743.638 559.167 744.032 559.461 744.409 559.776C744.845 560.134 745.263 560.514 745.659 560.916C746.564 561.84 747.362 562.863 748.039 563.966C748.693 565.082 749.216 566.27 749.599 567.506C749.904 568.519 750.105 569.562 750.199 570.616C750.222 571.019 750.222 571.423 750.199 571.826C750.22 572.129 750.22 572.433 750.199 572.736C750.193 572.998 750.163 573.259 750.109 573.516C750.049 573.516 750.109 572.406 749.959 570.636C749.912 570.155 749.835 569.677 749.729 569.206C749.62 568.658 749.48 568.117 749.309 567.586C748.916 566.378 748.396 565.215 747.759 564.116C747.088 563.041 746.311 562.036 745.439 561.116C745.053 560.715 744.645 560.334 744.219 559.976C743.857 559.653 743.477 559.353 743.079 559.076C741.659 558.026 740.659 557.566 740.709 557.506Z" fill="#263238"/>
<path d="M1049 511C587.091 721.778 188.821 771.798 96.4435 611.796C70.9146 567.579 70.9758 511.149 93.1375 446.404" stroke="white" stroke-linecap="round" stroke-linejoin="round"/>
</g>
<defs>
<clipPath id="clip0_414_623">
<rect width="865.76" height="682.89" fill="white"/>
</clipPath>
</defs>
</svg>
