<svg width="40" height="40" viewBox="0 0 40 40" fill="none" xmlns="http://www.w3.org/2000/svg">
<g clip-path="url(#clip0_1_34)">
<path d="M20 40C31.0457 40 40 31.0457 40 20C40 8.9543 31.0457 0 20 0C8.9543 0 0 8.9543 0 20C0 31.0457 8.9543 40 20 40Z" fill="#2775C9"/>
<path d="M19.6875 34.375C11.575 34.375 5 27.8 5 19.6875C5 11.575 11.575 5 19.6875 5C27.8 5 34.375 11.575 34.375 19.6875C34.375 23.5829 32.8276 27.3187 30.0731 30.0731C27.3187 32.8276 23.5829 34.375 19.6875 34.375ZM18.8125 14.2375C18.0089 14.2774 17.2492 14.6162 16.6826 15.1874C16.1159 15.7587 15.7833 16.5211 15.75 17.325C15.75 18.8375 16.675 19.825 18.6375 20.2375L20.0125 20.5625C21.35 20.875 21.9 21.325 21.9 22.0875C21.9 22.85 20.9375 23.6 19.6875 23.6C19.2435 23.6407 18.797 23.5556 18.3991 23.3545C18.0012 23.1533 17.668 22.8442 17.4375 22.4625C17.3692 22.3177 17.2614 22.1951 17.1265 22.1088C16.9916 22.0226 16.8351 21.9762 16.675 21.975H15.9375C15.8808 21.9855 15.8267 22.0071 15.7784 22.0386C15.7301 22.0701 15.6884 22.1108 15.6559 22.1584C15.6234 22.2061 15.6006 22.2597 15.5888 22.3161C15.5771 22.3726 15.5766 22.4309 15.5875 22.4875C15.7671 23.2207 16.1848 23.8736 16.7752 24.3441C17.3655 24.8146 18.0952 25.076 18.85 25.0875V26.1375C18.85 26.3712 18.9428 26.5954 19.1081 26.7606C19.2734 26.9259 19.4975 27.0187 19.7312 27.0187C19.965 27.0187 20.1891 26.9259 20.3544 26.7606C20.5197 26.5954 20.6125 26.3712 20.6125 26.1375V25.075C21.466 25.0653 22.282 24.7228 22.8867 24.1205C23.4914 23.5181 23.837 22.7034 23.85 21.85C23.85 20.2625 22.9375 19.35 20.775 18.8875L19.525 18.6125C18.275 18.3 17.6875 17.8875 17.6875 17.1875C17.6875 16.4875 18.4375 15.7125 19.6875 15.7125C20.0812 15.6714 20.4783 15.7451 20.831 15.9248C21.1837 16.1044 21.4768 16.3824 21.675 16.725C21.7553 16.8961 21.8825 17.0409 22.0418 17.1427C22.2011 17.2445 22.386 17.299 22.575 17.3H23.1625C23.2961 17.2673 23.4115 17.1835 23.484 17.0667C23.5564 16.9498 23.5801 16.8092 23.55 16.675C23.3806 15.998 23.0018 15.3919 22.4676 14.9429C21.9334 14.494 21.271 14.2252 20.575 14.175V13.3125C20.575 13.0788 20.4822 12.8546 20.3169 12.6894C20.1516 12.5241 19.9275 12.4312 19.6938 12.4312C19.46 12.4312 19.2359 12.5241 19.0706 12.6894C18.9053 12.8546 18.8125 13.0788 18.8125 13.3125V14.2375ZM8.675 19.6875C8.67643 21.9901 9.40122 24.234 10.747 26.1024C12.0927 27.9708 13.9915 29.3691 16.175 30.1H16.35C16.4992 30.1 16.6423 30.0407 16.7477 29.9352C16.8532 29.8298 16.9125 29.6867 16.9125 29.5375V29.275C16.9129 29.0423 16.8442 28.8147 16.7152 28.6211C16.5861 28.4275 16.4024 28.2766 16.1875 28.1875C14.487 27.5011 13.0304 26.3222 12.0047 24.8021C10.979 23.282 10.431 21.49 10.431 19.6562C10.431 17.8225 10.979 16.0305 12.0047 14.5104C13.0304 12.9903 14.487 11.8114 16.1875 11.125C16.4015 11.0381 16.5847 10.8894 16.7138 10.698C16.8429 10.5065 16.9121 10.2809 16.9125 10.05V9.7625C16.9133 9.67809 16.8938 9.59472 16.8555 9.51948C16.8172 9.44423 16.7614 9.37932 16.6927 9.33026C16.624 9.28119 16.5445 9.24941 16.4609 9.23762C16.3773 9.22582 16.2921 9.23436 16.2125 9.2625C14.02 9.98762 12.1116 11.3851 10.7585 13.2566C9.40546 15.128 8.67643 17.3782 8.675 19.6875ZM30.7 19.6875C30.6959 17.3871 29.97 15.1459 28.6244 13.28C27.2788 11.4141 25.3815 10.0177 23.2 9.2875H23.0125C22.8567 9.2875 22.7073 9.3494 22.5971 9.45957C22.4869 9.56975 22.425 9.71919 22.425 9.875V10.0625C22.43 10.3036 22.5047 10.5381 22.64 10.7377C22.7753 10.9373 22.9654 11.0935 23.1875 11.1875C24.8841 11.8759 26.3367 13.0549 27.3595 14.5736C28.3822 16.0922 28.9285 17.8815 28.9285 19.7125C28.9285 21.5435 28.3822 23.3328 27.3595 24.8514C26.3367 26.3701 24.8841 27.5491 23.1875 28.2375C22.9697 28.3325 22.7834 28.4876 22.6506 28.6846C22.5178 28.8816 22.4438 29.1125 22.4375 29.35V29.5625C22.4386 29.6552 22.4615 29.7463 22.5045 29.8284C22.5476 29.9105 22.6094 29.9812 22.6849 30.0348C22.7605 30.0885 22.8477 30.1235 22.9394 30.137C23.0311 30.1505 23.1247 30.1421 23.2125 30.1125C25.3957 29.3788 27.2932 27.9777 28.6367 26.107C29.9803 24.2363 30.7021 21.9907 30.7 19.6875Z" fill="white"/>
</g>
<defs>
<clipPath id="clip0_1_34">
<rect width="40" height="40" fill="white"/>
</clipPath>
</defs>
</svg>
